<svg preserveAspectRatio="xMidYMid meet" data-bbox="-0.003 0 467.782 153.97" viewBox="-0.003 0 467.782 153.97" xmlns="http://www.w3.org/2000/svg" data-type="color" role="presentation" aria-hidden="true" aria-label="">
    <g>
        <path d="M100.47 20.29c-5.61-5.61-13.36-9.08-21.92-9.08-17.12 0-31 13.88-31 31 0 8.56 3.47 16.31 9.08 21.92 5.61 5.61 13.36 9.08 21.92 9.08 17.12 0 31-13.88 31-31 0-8.56-3.47-16.31-9.08-21.92Zm-10.59 21.3c-1.85 1.54-3.7 3.07-5.54 4.61-.19.16-.38.33-.52.53-.22.32-.35.92-.16 1.3.19.37.38.59.79 1-2.01-.29-3.96-.73-5.95-1.02v1.08c.02 1.45.05 2.89.07 4.34 0 .08-.09.22-.14.22-.11 0-.22.01-.34.01-.11 0-.23 0-.34-.01-.05 0-.14-.14-.14-.22.02-1.45.05-2.89.07-4.34v-1.08c-1.99.29-3.95.73-5.96 1.02.42-.41.61-.63.79-1 .19-.38.06-.98-.16-1.3-.14-.2-.33-.37-.52-.53-1.84-1.54-3.69-3.07-5.54-4.61-.04-.03-.08-.07-.15-.13h.02c1.11-.11 1.79-1.08 1.5-2.15-.2-.76-.41-1.52-.61-2.28-.01-.04-.02-.09-.04-.17.65.15 1.28.29 1.9.42h.01c.74.16 1.5-.16 1.91-.81.16-.25.23-.38.4-.65.58.6 2.26 2.27 2.61 2.63.19.19.35.37.51.28.26-.16.15-.46.11-.71-.33-2.01-.68-4.02-1.01-6.04-.02-.09-.02-.18-.04-.35.19.17.34.29.48.41h.02c.82.73 2.1.48 2.65-.46.07-.12.14-.24.2-.36.44-.79.87-1.59 1.32-2.42.45.83.88 1.63 1.32 2.42.07.12.14.24.2.36.55.94 1.83 1.19 2.65.47h.02c.14-.14.28-.26.48-.43l-.04.35c-.34 2.01-.68 4.02-1.01 6.04-.04.25-.14.55.11.71.16.09.32-.08.51-.28.35-.36 2.03-2.03 2.61-2.63.17.27.24.39.4.65.41.64 1.17.97 1.91.81h.01c.62-.14 1.25-.28 1.9-.42-.02.08-.03.13-.04.17-.2.76-.41 1.52-.61 2.28-.29 1.08.39 2.04 1.5 2.15h.02c-.07.06-.11.1-.15.14Z" fill="#fbcd00" data-color="1"></path>
        <path d="M71.73 49.03c.42-.41.61-.63.79-1 .19-.38.06-.98-.16-1.3-.14-.2-.33-.37-.52-.53-1.84-1.54-3.69-3.07-5.54-4.61-.04-.03-.08-.07-.15-.13h.02c1.11-.11 1.79-1.08 1.5-2.15-.2-.76-.41-1.52-.61-2.28-.01-.04-.02-.09-.04-.17.65.15 1.28.29 1.9.42h.01c.74.16 1.5-.16 1.91-.81.16-.25.23-.38.4-.65.58.6 2.26 2.27 2.61 2.63.19.19.35.37.51.28.26-.16.15-.46.11-.71-.33-2.01-.68-4.02-1.01-6.04-.02-.09-.02-.18-.04-.35.19.17.34.29.48.41h.02c.82.73 2.1.48 2.65-.46.07-.12.14-.24.2-.36.44-.79.87-1.59 1.32-2.42.45.83.88 1.63 1.32 2.42.07.12.14.24.2.36.55.94 1.83 1.19 2.65.47h.02c.14-.14.28-.26.48-.43l-.04.35c-.34 2.01-.68 4.02-1.01 6.04-.04.25-.14.55.11.71.1.06.21 0 .32-.1l1.84-1.84c.38-.39.74-.75.95-.96l15.53-15.53c-5.61-5.61-13.36-9.08-21.92-9.08-17.12 0-31 13.88-31 31 0 8.56 3.47 16.31 9.08 21.92l15.1-15.1Z" fill="#32bf6e" data-color="2"></path>
        <path fill="#fbcd00" d="M289.37 96.75v50a5 5 0 0 1-5 5h-18a5 5 0 0 1-5-5v-50a5 5 0 0 1 5-5h18a5 5 0 0 1 5 5z" data-color="1"></path>
        <path fill="#2ccdff" d="M341.37 96.75v50a5 5 0 0 1-5 5h-18a5 5 0 0 1-5-5v-50a5 5 0 0 1 5-5h18a5 5 0 0 1 5 5z" data-color="3"></path>
        <path d="M336.37 91.75h-70c-2.76 0-5 2.24-5 5v.08c0 1.67.73 3.26 2 4.35l26 22.28 8.75 7.5c1.87 1.6 4.64 1.6 6.51 0l8.75-7.5 26-22.28c1.27-1.09 2-2.68 2-4.35v-.08c0-2.76-2.24-5-5-5Z" fill="#ea1f4b" data-color="4"></path>
        <path d="M284.37 91.75h-18c-2.76 0-5 2.24-5 5v.08c0 1.67.73 3.26 2 4.35l26 22.28V96.75c0-2.76-2.24-5-5-5Z" fill="#ed8300" data-color="5"></path>
        <path d="M336.37 91.75h-18c-2.76 0-5 2.24-5 5v26.71l26-22.28c1.27-1.09 2-2.68 2-4.35v-.08c0-2.76-2.24-5-5-5Z" fill="#8a00aa" data-color="6"></path>
        <path fill="#fbcd00" d="M415.77 82.95v50a5 5 0 0 1-5 5h-18a5 5 0 0 1-5-5v-50a5 5 0 0 1 5-5h18a5 5 0 0 1 5 5z" data-color="1"></path>
        <path fill="#2ccdff" d="M467.77 82.95v50a5 5 0 0 1-5 5h-18a5 5 0 0 1-5-5v-50a5 5 0 0 1 5-5h18a5 5 0 0 1 5 5z" data-color="3"></path>
        <path d="M462.77 77.95h-70c-2.76 0-5 2.24-5 5v.08c0 1.67.73 3.26 2 4.35l26 22.28 8.75 7.5c1.87 1.6 4.64 1.6 6.51 0l8.75-7.5 26-22.28c1.27-1.09 2-2.68 2-4.35v-.08c0-2.76-2.24-5-5-5Z" fill="#ea1f4b" data-color="4"></path>
        <path d="M410.77 77.95h-18c-2.76 0-5 2.24-5 5v.08c0 1.67.73 3.26 2 4.35l26 22.28V82.95c0-2.76-2.24-5-5-5Z" fill="#ed8300" data-color="5"></path>
        <path d="M462.77 77.95h-18c-2.76 0-5 2.24-5 5v26.71l26-22.28c1.27-1.09 2-2.68 2-4.35v-.08c0-2.76-2.24-5-5-5Z" fill="#8a00aa" data-color="6"></path>
        <path d="M160.65 68.92h-29.44c-2.76 0-5 2.24-5 5v40c0 2.76 2.24 5 5 5h30c13.65 0 24.74-10.93 25-24.52.27-14.01-11.54-25.48-25.56-25.48Z" fill="#2ccdff" data-color="3"></path>
        <path d="M126.27 123.92V73.99c0-4.45 5.39-6.69 8.54-3.54l49.93 49.93c3.15 3.15.92 8.54-3.54 8.54h-49.93c-2.76 0-5-2.24-5-5Z" fill="#ea1f4b" data-color="4"></path>
        <path d="M131.21 118.92h30c6.16 0 11.79-2.23 16.14-5.92L134.8 70.45c-3.15-3.15-8.54-.92-8.54 3.54v40.53c.3 2.47 2.39 4.39 4.94 4.39Z" fill="#8a00aa" data-color="6"></path>
        <path d="m105.34 132.51-19.35-19.35a9.204 9.204 0 0 1-2.7-6.51V89.71c0-2.76-2.24-5-5-5h-17c-2.76 0-5 2.24-5 5v24.75c0 7.93 3.02 15.87 9.07 21.92 10.65 10.65 27.13 11.93 39.18 3.83 2.63-1.76 3.01-5.48.78-7.71Z" fill="#ea1f4b" data-color="4"></path>
        <path d="M118.42 89.72c0-2.76-2.24-5-5-5h-17c-2.76 0-5 2.24-5 5v16.87c0 2.41-.96 4.72-2.66 6.42l-19.5 19.5c-2.24 2.24-1.85 5.95.78 7.71 12.05 8.1 28.53 6.82 39.18-3.83 6.05-6.05 9.07-13.99 9.07-21.92h.13V89.72Z" fill="#fbcd00" data-color="1"></path>
        <path d="M70.03 140.22c10.41 6.99 24.12 6.99 34.53 0 2.63-1.76 3.01-5.48.78-7.71L87.3 114.47l-18.04 18.04c-2.24 2.24-1.85 5.95.78 7.71Z" fill="#ed8300" data-color="5"></path>
        <path d="m241.21 130.51-19.35-19.35a9.204 9.204 0 0 1-2.7-6.51V87.71c0-2.76-2.24-5-5-5h-17c-2.76 0-5 2.24-5 5v24.75c0 7.93 3.02 15.87 9.07 21.92 10.65 10.65 27.13 11.93 39.18 3.83 2.63-1.76 3.01-5.48.78-7.71Z" fill="#2ccdff" data-color="3"></path>
        <path d="M254.29 87.72c0-2.76-2.24-5-5-5h-17c-2.76 0-5 2.24-5 5v16.87c0 2.41-.96 4.72-2.66 6.42l-19.5 19.5c-2.24 2.24-1.85 5.95.78 7.71 12.05 8.1 28.53 6.82 39.18-3.83 6.05-6.05 9.07-13.99 9.07-21.92h.13V87.72Z" fill="#fbcd00" data-color="1"></path>
        <path d="M205.9 138.23c10.41 6.99 24.12 6.99 34.53 0 2.63-1.76 3.01-5.48.78-7.71l-18.04-18.04-18.04 18.04c-2.24 2.24-1.85 5.95.78 7.71Z" fill="#32bf6e" data-color="2"></path>
        <path fill="#ed8300" d="M378.54 122.97v26a5 5 0 0 1-5 5h-18a5 5 0 0 1-5-5v-26a5 5 0 0 1 5-5h18a5 5 0 0 1 5 5z" data-color="5"></path>
        <path fill="#fbcd00" d="M380.54 108.97c0 8.837-7.163 16-16 16s-16-7.163-16-16 7.163-16 16-16 16 7.163 16 16z" data-color="1"></path>
        <path d="M376.82 119.22a4.963 4.963 0 0 0-3.28-1.25h-18c-1.26 0-2.4.48-3.28 1.25 2.93 3.51 7.34 5.75 12.28 5.75s9.34-2.24 12.28-5.75Z" fill="#ea1f4b" data-color="4"></path>
        <path fill="#fbcd00" d="M375.44 29.26v50a5 5 0 0 1-5 5h-18a5 5 0 0 1-5-5v-50a5 5 0 0 1 5-5h18a5 5 0 0 1 5 5z" data-color="1"></path>
        <path d="M315.44 79.26V29.33c0-4.45 5.39-6.69 8.54-3.54l49.93 49.93c3.15 3.15.92 8.54-3.54 8.54h-49.93c-2.76 0-5-2.24-5-5Z" fill="#ea1f4b" data-color="4"></path>
        <path d="m373.9 75.72-26.46-26.46v30c0 2.76 2.24 5 5 5h17.93c.1 0 .19-.02.29-.02.21 0 .41-.03.61-.06.16-.03.32-.07.48-.11.11-.03.21-.06.31-.1.19-.07.37-.13.54-.22.01 0 .03-.01.04-.02 2.83-1.44 3.81-5.45 1.26-8Z" fill="#ed8300" data-color="5"></path>
        <path d="M228.15 25.05c-10.65 10.65-11.93 27.13-3.83 39.18 1.76 2.63 5.48 3.01 7.71.78l36.08-36.08c2.24-2.24 1.85-5.95-.78-7.71-12.05-8.1-28.53-6.82-39.18 3.83Z" fill="#ea1f4b" data-color="4"></path>
        <path d="M228.15 68.89c10.65 10.65 27.13 11.93 39.18 3.83 2.63-1.76 3.01-5.48.78-7.71l-36.08-36.08c-2.24-2.24-5.95-1.85-7.71.78-8.1 12.05-6.82 28.53 3.83 39.18Z" fill="#fbcd00" data-color="1"></path>
        <path d="M224.32 29.71c-6.99 10.41-6.99 24.12 0 34.53 1.76 2.63 5.48 3.01 7.71.78l18.04-18.04-18.04-18.04c-2.24-2.24-5.95-1.85-7.71.78Z" fill="#ed8300" data-color="5"></path>
        <path fill="#ea1f4b" d="M145.51 18v18h-30V18h30z" data-color="4"></path>
        <path fill="#fbcd00" d="M175.51 5v14a5 5 0 0 1-5 5h-50a5 5 0 0 1-5-5V5a5 5 0 0 1 5-5h50a5 5 0 0 1 5 5z" data-color="1"></path>
        <path d="M160.51 18h-15V5c0-2.76-2.24-5-5-5h-20c-2.76 0-5 2.24-5 5v14c0 2.76 2.24 5 5 5h5v6h40v-7c0-2.76-2.24-5-5-5Z" fill="#ed8300" data-color="5"></path>
        <path d="M140.51 60h-20c-2.76 0-5-2.24-5-5V36h30v19c0 2.76-2.24 5-5 5Z" fill="#ea1f4b" data-color="4"></path>
        <path d="M165.51 24v13c0 2.76-2.24 5-5 5h-45V24h50Z" fill="#ea1f4b" data-color="4"></path>
        <path fill="#2ccdff" d="M211.46 40.76v26a5 5 0 0 1-5 5h-18a5 5 0 0 1-5-5v-26a5 5 0 0 1 5-5h18a5 5 0 0 1 5 5z" data-color="3"></path>
        <path fill="#fbcd00" d="M213.46 26.76c0 8.837-7.163 16-16 16s-16-7.163-16-16 7.163-16 16-16 16 7.163 16 16z" data-color="1"></path>
        <path d="M209.74 37.01a4.963 4.963 0 0 0-3.28-1.25h-18c-1.26 0-2.4.48-3.28 1.25 2.93 3.51 7.34 5.75 12.28 5.75s9.34-2.24 12.28-5.75Z" fill="#32bf6e" data-color="2"></path>
        <path fill="#ea1f4b" d="M306.37 53.76v26a5 5 0 0 1-5 5h-18a5 5 0 0 1-5-5v-26a5 5 0 0 1 5-5h18a5 5 0 0 1 5 5z" data-color="4"></path>
        <path fill="#2ccdff" d="M308.37 39.76c0 8.837-7.163 16-16 16s-16-7.163-16-16 7.163-16 16-16 16 7.163 16 16z" data-color="3"></path>
        <path d="M304.65 50.01a4.963 4.963 0 0 0-3.28-1.25h-18c-1.26 0-2.4.48-3.28 1.25 2.93 3.51 7.34 5.75 12.28 5.75s9.34-2.24 12.28-5.75Z" fill="#8a00aa" data-color="6"></path>
        <path d="M439.32 70.04h-51.6c-3.74 0-6.16-3.96-4.44-7.29l25.8-50.08c1.86-3.61 7.03-3.61 8.89 0l25.8 50.08c1.71 3.33-.7 7.29-4.44 7.29Z" fill="#32bf6e" data-color="2"></path>
        <path d="M439.32 70.04h-29.47c-3.74 0-6.16-3.96-4.44-7.29l14.74-28.6c1.86-3.61 7.03-3.61 8.89 0l14.74 28.6c1.71 3.33-.7 7.29-4.44 7.29Z" fill="#fbcd00" data-color="1"></path>
        <path d="M9.08 68.61C-1.57 79.26-2.85 95.74 5.25 107.79c1.76 2.63 5.48 3.01 7.71.78l36.08-36.08c2.24-2.24 1.85-5.95-.78-7.71-12.05-8.1-28.53-6.82-39.18 3.84Z" fill="#2ccdff" data-color="3"></path>
        <path d="M9.08 112.45c10.65 10.65 27.13 11.93 39.18 3.83 2.63-1.76 3.01-5.48.78-7.71L12.96 72.49c-2.24-2.24-5.95-1.85-7.71.78-8.1 12.05-6.82 28.53 3.83 39.18Z" fill="#fbcd00" data-color="1"></path>
        <path d="M5.24 73.27c-6.99 10.41-6.99 24.12 0 34.53 1.76 2.63 5.48 3.01 7.71.78l18.04-18.04L12.95 72.5c-2.24-2.24-5.95-1.85-7.71.78Z" fill="#32bf6e" data-color="2"></path>
    </g>
</svg>